<?xml version="1.0" encoding="UTF-8"?>
<svg width="28px" height="28px" viewBox="0 0 28 28" version="1.1" xmlns="http://www.w3.org/2000/svg" xmlns:xlink="http://www.w3.org/1999/xlink">
    <!-- Generator: Sketch 40.2 (33826) - http://www.bohemiancoding.com/sketch -->
    <title>instagram</title>
    <desc>Created with Sketch.</desc>
    <defs>
        <rect id="ing-path-1" x="0" y="0" width="28" height="28" rx="1"></rect>
        <mask id="ing-mask-2" maskContentUnits="userSpaceOnUse" maskUnits="objectBoundingBox" x="0" y="0" width="28" height="28" fill="white">
            <use xlink:href="#ing-path-1"></use>
        </mask>
    </defs>
    <g stroke="none" stroke-width="1" fill="none" fill-rule="evenodd">
        <g>
            <use id="Rectangle-4" stroke="#000000" mask="url(#ing-mask-2)" stroke-width="2" xlink:href="#ing-path-1"></use>
            <path d="M17.5009085,10.946319 C17.0440382,10.946319 16.6736316,10.5762877 16.6736316,10.1198803 C16.6736316,9.66347288 17.0440382,9.29344163 17.5009085,9.29344163 C17.9577788,9.29344163 18.3281853,9.66347288 18.3281853,10.1198803 C18.3281853,10.5762877 17.9577788,10.946319 17.5009085,10.946319 M13.8128549,17.3498858 C11.8540768,17.3498858 10.2635703,15.7609908 10.2635703,13.8041973 C10.2635703,11.8474038 11.8540768,10.2585087 13.8128549,10.2585087 C15.771633,10.2585087 17.3621395,11.8474038 17.3621395,13.8041973 C17.3621395,15.7609908 15.771633,17.3498858 13.8128549,17.3498858 M20.3616852,9.2827779 C20.1855553,8.82956959 19.9507154,8.44567549 19.566432,8.06178139 C19.1821485,7.6778873 18.7978651,7.44328535 18.3441971,7.26733388 C17.906541,7.09671429 17.3995003,6.97941331 16.6682943,6.94742214 C15.9317511,6.91543096 15.6969112,6.90476724 13.8181921,6.90476724 C11.9394731,6.90476724 11.7046332,6.9100991 10.9680899,6.94742214 C10.2315467,6.97941331 9.72984329,7.09671429 9.29218715,7.26733388 C8.83851919,7.44328535 8.45423575,7.6778873 8.06995231,8.06178139 C7.68566886,8.44567549 7.45082898,8.82956959 7.27469907,9.2827779 C7.10390643,9.71999062 6.98648649,10.2265176 6.95446287,10.9569827 C6.92243925,11.6927797 6.91176471,11.9273817 6.91176471,13.8041973 C6.91176471,15.6810129 6.91710198,15.9156148 6.95446287,16.6514118 C6.98648649,17.3872089 7.10390643,17.8884039 7.27469907,18.3256167 C7.45082898,18.778825 7.68566886,19.1627191 8.06995231,19.5466132 C8.45423575,19.9305073 8.83851919,20.1651092 9.29218715,20.3410607 C9.72984329,20.5116803 10.2368839,20.6289812 10.9680899,20.6609724 C11.7046332,20.6929636 11.9394731,20.7036273 13.8181921,20.7036273 C15.6969112,20.7036273 15.9317511,20.6982955 16.6682943,20.6609724 C17.4048376,20.6289812 17.906541,20.5116803 18.3441971,20.3410607 C18.7978651,20.1651092 19.1821485,19.9305073 19.566432,19.5466132 C19.9507154,19.1627191 20.1855553,18.778825 20.3616852,18.3256167 C20.5324779,17.8884039 20.6498978,17.381877 20.6819214,16.6514118 C20.713945,15.9156148 20.7246196,15.6810129 20.7246196,13.8041973 C20.7246196,11.9273817 20.7192823,11.6927797 20.6819214,10.9569827 C20.6498978,10.2211857 20.5324779,9.71999062 20.3616852,9.2827779 Z" id="Fill-1" fill="#000000"></path>
        </g>
    </g>
</svg>