<?xml version="1.0" encoding="UTF-8"?>
<svg width="17px" height="19px" viewBox="0 0 17 19" version="1.1" xmlns="http://www.w3.org/2000/svg" xmlns:xlink="http://www.w3.org/1999/xlink">
    <!-- Generator: Sketch 40.2 (33826) - http://www.bohemiancoding.com/sketch -->
    <title>parts</title>
    <desc>Created with Sketch.</desc>
    <defs></defs>
    <g id="graphics" stroke="none" stroke-width="1" fill="none" fill-rule="evenodd">
        <g id="parts" fill="#000000">
            <path d="M11.0784935,2.06924623 L14.8322139,5.94286919 C14.9211433,6.03462594 14.9216929,6.18320811 14.8333818,6.27567341 L13.2620554,7.92088264 C13.1742252,8.01285196 13.0310588,8.01508388 12.9405837,7.92587789 L12.3236768,7.31762627 L11.1028813,8.38487422 L11.4481568,8.95507691 C11.5438873,9.11318903 11.5193278,9.31880918 11.389214,9.44822518 L11.0884204,9.74730259 C10.9462845,9.88865759 10.7143261,9.86067001 10.6076383,9.68930807 L8.04015838,5.56478885 C7.97513584,5.46034912 7.99035242,5.32313911 8.0765339,5.23651932 L8.51640637,4.79428011 C8.62484597,4.68530568 8.80112471,4.69805951 8.89369509,4.82163 L9.24587473,5.2916088 L9.75753648,4.67092219 L9.14495756,4.0082542 C9.06166139,3.91816253 9.06403146,3.77574471 9.15028164,3.68866437 L10.7562661,2.06743944 C10.8459856,1.97681636 10.9897359,1.97763118 11.0784935,2.06924623" id="Fill-1"></path>
            <path d="M7.91191471,7.6142425 C7.9226201,7.60595234 7.97407613,7.54853666 8.0313236,7.48333765 C8.12135411,7.38081482 8.28154874,7.39562126 8.35223936,7.51316774 L9.84583319,9.99637771 C9.89718393,10.0817772 9.88202089,10.1928074 9.80975079,10.2602509 L9.5820596,10.4726455 L9.96253941,11.1963871 C10.0268419,11.3187122 10.0070106,11.4699623 9.91343505,11.5702406 L9.60399686,11.9019556 C9.4638792,12.0521558 9.22421905,12.0261269 9.11779702,11.8489203 C8.57122585,10.9387406 7.12262972,8.52286552 6.70982317,7.8344204 C6.64481868,7.72599672 6.66096451,7.58593288 6.74878374,7.49622541 C6.85762764,7.38512281 7.00757319,7.23112136 7.13565167,7.09605333 C7.27443554,6.94976282 7.50890096,6.97394546 7.61693757,7.14561327 L7.91191471,7.6142425 Z" id="Fill-3"></path>
            <path d="M6.21521823,9.60110567 C6.22569465,9.59299281 6.27605019,9.53680509 6.33207331,9.47300049 C6.42017833,9.37267032 6.57694687,9.38716009 6.64612563,9.5021926 L8.10777591,11.9322941 C8.1580284,12.0158671 8.14318966,12.1245227 8.0724652,12.1905238 L7.84964365,12.3983758 L8.22198612,13.1066388 C8.28491337,13.2263477 8.26550622,13.374363 8.17393196,13.4724967 L7.87111174,13.7971172 C7.73399078,13.9441052 7.49945625,13.9186329 7.39531027,13.7452162 C6.86042864,12.8545026 5.4428137,10.4902959 5.03883586,9.81657462 C4.97522164,9.7104698 4.99102215,9.5734015 5.07696318,9.48561261 C5.18347923,9.37688617 5.33021789,9.22617836 5.45555716,9.09399904 C5.59137285,8.95083724 5.82082374,8.97450269 5.92654977,9.14249904 L6.21521823,9.60110567 Z" id="Fill-5"></path>
            <path d="M1.76127605,17.368273 C1.2447024,17.368273 0.825954517,16.9363786 0.825954517,16.4035871 C0.825954517,15.8707957 1.2447024,15.4389012 1.76127605,15.4389012 C2.2778497,15.4389012 2.69659757,15.8707957 2.69659757,16.4035871 C2.69659757,16.9363786 2.2778497,17.368273 1.76127605,17.368273 M6.74702412,13.5878593 L6.36884233,13.1580905 L5.19812754,11 C5.19812754,11 4.79882116,11.4649835 4.76017861,11.5048393 L4.46666695,11.2663426 C4.38079461,11.1965153 4.25638276,11.2112177 4.18802838,11.29929 L2.40576513,13.5949448 C2.34287223,13.6758962 2.34843676,13.7925229 2.41868033,13.8667786 L2.76508935,14.2327428 C2.76508935,14.2327428 2.35001681,14.6637515 2.33284234,14.6726084 L2.35214644,14.6920934 C2.16741787,14.6242501 1.96860622,14.587016 1.76127605,14.587016 C0.788548525,14.587016 0,15.4003209 0,16.4035871 C0,17.4068533 0.788548525,18.2201583 1.76127605,18.2201583 C2.73400357,18.2201583 3.52255209,17.4068533 3.52255209,16.4035871 C3.52255209,16.1761437 3.48167686,15.9586554 3.4076549,15.7580305 L3.42915733,15.779712 L3.86995723,15.3250733 L4.26747747,15.6964933 C4.31876043,15.744391 4.39625163,15.7466229 4.45004206,15.7017365 L6.73139535,13.7977307 C6.79408216,13.7454046 6.80122674,13.6494674 6.74702412,13.5878593" id="Fill-7"></path>
            <path d="M15.2652104,2.48512008 C14.7970001,2.48512008 14.4174443,2.09364822 14.4174443,1.61073844 C14.4174443,1.1278641 14.7970001,0.736392234 15.2652104,0.736392234 C15.7334208,0.736392234 16.1129765,1.1278641 16.1129765,1.61073844 C16.1129765,2.09364822 15.7334208,2.48512008 15.2652104,2.48512008 M15.2652104,0 C14.8932802,0 14.5518861,0.13434039 14.2836552,0.35824104 L12.4984723,2.19656458 L11.9811087,1.76477642 L11,2.8342563 L14.1901574,6.03376825 L15.205615,5.02632161 L14.6946746,4.43401228 L16.312166,2.80584359 C16.3394047,2.7804422 16.3655099,2.75383629 16.3909625,2.72652183 L16.4335551,2.67912008 C16.6781539,2.39478042 16.8269192,2.02077422 16.8269192,1.61073844 C16.8269192,0.721158487 16.1277122,0 15.2652104,0" id="Fill-9"></path>
        </g>
    </g>
</svg>