<?xml version="1.0" encoding="UTF-8"?>
<svg width="27px" height="24px" viewBox="0 0 27 24" version="1.1" xmlns="http://www.w3.org/2000/svg" xmlns:xlink="http://www.w3.org/1999/xlink">
    <!-- Generator: Sketch 40.2 (33826) - http://www.bohemiancoding.com/sketch -->
    <title>cart_full</title>
    <desc>Created with Sketch.</desc>
    <defs>
        <ellipse id="path-1" cx="18.5" cy="6.5" rx="6.5" ry="6.5"></ellipse>
        <mask id="mask-2" maskContentUnits="userSpaceOnUse" maskUnits="objectBoundingBox" x="-2" y="-2" width="17" height="17">
            <rect x="10" y="-2" width="17" height="17" fill="white"></rect>
            <use xlink:href="#path-1" fill="black"></use>
        </mask>
    </defs>
    <g id="graphics" stroke="none" stroke-width="1" fill="none" fill-rule="evenodd">
        <g id="cart_full" transform="translate(0.000000, 2.000000)">
            <polyline id="Stroke-1" stroke="#FFFFFF" stroke-width="2" points="0 6 3.60932925 6 5.93085954 17.3925112 14.9302224 17.3925112"></polyline>
            <polyline id="Stroke-3" stroke="#FFFFFF" stroke-width="2" points="5.3936589 13.9688595 14.2895904 13.9688595 15.4425126 9 4 9"></polyline>
            <path d="M6.46847457,21.9247613 C5.65730888,21.9247613 5,21.2700504 5,20.4623806 C5,19.6547108 5.65730888,19 6.46847457,19 C7.27934942,19 7.9366583,19.6547108 7.9366583,20.4623806 C7.9366583,21.2700504 7.27934942,21.9247613 6.46847457,21.9247613 Z" id="Stroke-5" fill="#FFFFFF"></path>
            <path d="M12.4684746,21.9247613 C11.6573089,21.9247613 11,21.2700504 11,20.4623806 C11,19.6547108 11.6573089,19 12.4684746,19 C13.2793494,19 13.9366583,19.6547108 13.9366583,20.4623806 C13.9366583,21.2700504 13.2793494,21.9247613 12.4684746,21.9247613 Z" id="Stroke-5-Copy" fill="#FFFFFF"></path>
            <g id="Oval-2">
                <use fill="#801F25" fill-rule="evenodd" xlink:href="#path-1"></use>
                <use stroke="#000000" mask="url(#mask-2)" stroke-width="4" xlink:href="#path-1"></use>
            </g>
        </g>
    </g>
</svg>