<?xml version="1.0" encoding="UTF-8"?>
<svg width="25px" height="16px" viewBox="0 0 25 16" version="1.1" xmlns="http://www.w3.org/2000/svg" xmlns:xlink="http://www.w3.org/1999/xlink">
    <!-- Generator: Sketch 40.2 (33826) - http://www.bohemiancoding.com/sketch -->
    <title>vk_grey</title>
    <desc>Created with Sketch.</desc>
    <defs></defs>
    <g id="graphics" stroke="none" stroke-width="1" fill="none" fill-rule="evenodd">
        <g id="vk_grey" fill="#787878">
            <path d="M14.6612157,1.20625397 C14.7288847,3.08115767 14.5427948,5.04873862 14.7288847,6.7933418 C14.7796365,7.31319365 15.2201016,7.85151958 15.8133263,7.20167407 C17.4227633,5.38280635 18.7948544,1.89323175 18.9645312,1.28051852 C19.0491736,0.946512169 19.2859593,0.798167196 19.574169,0.798167196 L23.8600632,0.798167196 C24.3517842,0.798167196 25.1819626,1.07650582 24.5717647,2.37595132 C23.4703498,4.69607407 22.3526899,5.84686772 21.0990757,7.8887746 C20.7431969,8.4642328 20.5903813,9.03950688 21.0138732,9.50332275 C22.2505701,10.8587429 23.7077517,12.2128741 24.5209569,13.5684169 C25.1136214,14.6073228 24.5547914,15.4055132 23.7076957,15.4055132 L19.946853,15.4055132 C19.4556921,15.4055132 19.0491176,15.1825968 18.6594603,14.8303005 C17.8461991,14.1257079 17.2530305,13.2160593 16.5249718,12.4178688 C15.8471048,11.6940656 15.3729172,11.7119873 15.050873,12.3986582 C14.7796365,12.9188169 14.745802,13.5132402 14.6950502,14.5894011 C14.6612157,15.1096212 14.3391714,15.3311873 13.8987623,15.4054519 L12.0693449,15.4054519 C8.25775035,15.4054519 5.42853365,12.2692169 3.17562435,7.77719365 C2.15885184,5.73540952 1.19339131,3.8978836 0.329434368,1.55916402 C0.261765303,1.13217354 0.498607029,0.798167196 1.07497044,0.798167196 L4.51382492,0.798167196 C5.00504183,0.798167196 5.37778185,1.05790899 5.51311998,1.37344127 C6.47914069,3.8050836 7.61377389,5.97661587 8.66438093,7.276 C8.90122266,7.57287407 9.32471448,7.68433228 9.59600693,7.276 C10.0702506,6.57073228 9.93491243,2.59849947 9.663676,2.06011217 C9.18937636,1.07650582 8.39308848,1.39197672 8.39308848,1.20625397 C8.42692301,0.630979894 9.12170729,0.111189418 11.6966048,0.0925925926 C13.6957551,0.0925925926 14.6273251,0.296973545 14.6612157,1.20625397" id="Fill-1"></path>
        </g>
    </g>
</svg>