<?xml version="1.0" encoding="UTF-8"?>
<svg width="14px" height="22px" viewBox="0 0 14 22" version="1.1" xmlns="http://www.w3.org/2000/svg" xmlns:xlink="http://www.w3.org/1999/xlink">
    <!-- Generator: Sketch 40.2 (33826) - http://www.bohemiancoding.com/sketch -->
    <title>ok_grey</title>
    <desc>Created with Sketch.</desc>
    <defs></defs>
    <g id="graphics" stroke="none" stroke-width="1" fill="none" fill-rule="evenodd">
        <g id="ok_grey" fill="#787878">
            <path d="M7.01009274,11.3404099 C5.46791704,11.3404099 4.15132555,10.8151733 3.06031827,9.76470004 C1.96931099,8.71422678 1.42380735,7.45049955 1.42380735,5.97351834 C1.42380735,4.48863885 1.96931099,3.22096246 3.06031827,2.1704892 C4.15132555,1.12001594 5.46791704,0.594779308 7.01009274,0.594779308 C8.55226845,0.594779308 9.86885994,1.12001594 10.9598672,2.1704892 C12.0508745,3.22096246 12.5963781,4.48863885 12.5963781,5.97351834 C12.5963781,7.45049955 12.0508745,8.71422678 10.9598672,9.76470004 C9.86885994,10.8151733 8.55226845,11.3404099 7.01009274,11.3404099 L7.01009274,11.3404099 Z M7.01009274,3.31969115 C6.25541102,3.31969115 5.60941986,3.57836032 5.07211929,4.09569866 C4.53481871,4.613037 4.26616842,5.23897689 4.26616842,5.97351834 C4.26616842,6.7001615 4.53481871,7.32215225 5.07211929,7.83949059 C5.60941986,8.35682892 6.25541102,8.61549809 7.01009274,8.61549809 C7.76477447,8.61549809 8.41076562,8.35682892 8.9480662,7.83949059 C9.48536678,7.32215225 9.75401707,6.7001615 9.75401707,5.97351834 C9.75401707,5.23897689 9.48536678,4.613037 8.9480662,4.09569866 C8.41076562,3.57836032 7.76477447,3.31969115 7.01009274,3.31969115 L7.01009274,3.31969115 Z M13.4453951,11.9920193 C13.5520349,12.2052733 13.6135579,12.4007561 13.629964,12.5784677 C13.6463701,12.7561794 13.6279132,12.9161198 13.5745933,13.0582891 C13.5212734,13.2004585 13.4125828,13.3525006 13.2485216,13.5144157 C13.0844603,13.6763307 12.9101453,13.8224492 12.7255764,13.9527711 C12.5410075,14.0830929 12.2887633,14.2469826 11.9688439,14.44444 C11.0254917,15.0210155 9.73350941,15.3922354 8.09289696,15.5580996 L8.99113228,16.4111155 L12.2764587,19.5743827 C12.5225506,19.8192298 12.6455965,20.1114668 12.6455965,20.4510935 C12.6455965,20.7907202 12.5225506,21.0790079 12.2764587,21.3159568 L12.1288036,21.4699735 C11.8745087,21.7069224 11.5709954,21.8253968 11.2182637,21.8253968 C10.865532,21.8253968 10.5620187,21.7069224 10.3077238,21.4699735 C9.7581186,20.9328895 8.66300979,19.8745179 7.02239734,18.2948589 L3.7370709,21.4699735 C3.48277597,21.7069224 3.17926267,21.8253968 2.82653099,21.8253968 C2.47379932,21.8253968 2.17438754,21.7069224 1.92829568,21.4699735 L1.78064056,21.3159568 C1.52634563,21.0790079 1.39919816,20.7907202 1.39919816,20.4510935 C1.39919816,20.1114668 1.52634563,19.8192298 1.78064056,19.5743827 L5.06596699,16.4111155 L5.95189771,15.5580996 C4.28667607,15.3922354 2.98649071,15.0210155 2.05134161,14.44444 C1.73142218,14.2469826 1.47917802,14.0830929 1.29460912,13.9527711 C1.11004022,13.8224492 0.935725143,13.6763307 0.771663898,13.5144157 C0.607602653,13.3525006 0.498912078,13.2004585 0.445592173,13.0582891 C0.392272269,12.9161198 0.373815378,12.7561794 0.390221503,12.5784677 C0.406627628,12.4007561 0.468150594,12.2052733 0.574790404,11.9920193 C0.656821026,11.8340534 0.771663898,11.6958332 0.919319019,11.5773588 C1.06697414,11.4588844 1.23923845,11.3720031 1.43611194,11.3167151 C1.63298543,11.261427 1.86267118,11.2693253 2.12516917,11.3404099 C2.38766716,11.4114946 2.65426669,11.5497148 2.92496774,11.7550704 C2.96598305,11.7866636 3.02750602,11.8301042 3.10953664,11.8853923 C3.19156726,11.9406804 3.3679331,12.0374345 3.63863416,12.1756547 C3.90933521,12.3138748 4.19234086,12.4343238 4.4876511,12.5370017 C4.78296134,12.6396795 5.1603022,12.734459 5.61967369,12.8213403 C6.07904518,12.9082215 6.54251819,12.9516622 7.01009274,12.9516622 C7.75657141,12.9516622 8.47023782,12.8509589 9.15109199,12.6495524 C9.83194616,12.4481458 10.3241299,12.2487139 10.6276432,12.0512565 L11.0952177,11.7550704 C11.3659188,11.5497148 11.6325183,11.4114946 11.8950163,11.3404099 C12.1575143,11.2693253 12.3872001,11.261427 12.5840735,11.3167151 C12.780947,11.3720031 12.9532113,11.4588844 13.1008665,11.5773588 C13.2485216,11.6958332 13.3633645,11.8340534 13.4453951,11.9920193 L13.4453951,11.9920193 Z" id="ok_logo"></path>
        </g>
    </g>
</svg>