<?xml version="1.0" encoding="UTF-8"?>
<svg width="18px" height="14px" viewBox="0 0 18 14" version="1.1" xmlns="http://www.w3.org/2000/svg" xmlns:xlink="http://www.w3.org/1999/xlink">
    <!-- Generator: Sketch 40.2 (33826) - http://www.bohemiancoding.com/sketch -->
    <title>payment</title>
    <desc>Created with Sketch.</desc>
    <defs></defs>
    <g id="graphics" stroke="none" stroke-width="1" fill="none" fill-rule="evenodd">
        <g id="payment" fill="#000000">
            <path d="M16.2,0 L1.8,0 C0.8055,0 0.009,0.783125 0.009,1.75 L0,12.25 C0,13.216875 0.8055,14 1.8,14 L16.2,14 C17.1945,14 18,13.216875 18,12.25 L18,1.75 C18,0.783125 17.1945,0 16.2,0 L16.2,0 Z M16.2,12.25 L1.8,12.25 L1.8,7 L16.2,7 L16.2,12.25 L16.2,12.25 Z M16.2,3.5 L1.8,3.5 L1.8,1.75 L16.2,1.75 L16.2,3.5 L16.2,3.5 Z" id="Shape"></path>
        </g>
    </g>
</svg>