<?xml version="1.0" encoding="UTF-8"?>
<svg width="16px" height="14px" viewBox="0 0 16 14" version="1.1" xmlns="http://www.w3.org/2000/svg" xmlns:xlink="http://www.w3.org/1999/xlink">
    <!-- Generator: Sketch 40.2 (33826) - http://www.bohemiancoding.com/sketch -->
    <title>faq</title>
    <desc>Created with Sketch.</desc>
    <defs></defs>
    <g id="graphics" stroke="none" stroke-width="1" fill="none" fill-rule="evenodd">
        <g id="faq" fill="#000000">
            <path d="M4.64,8.71111111 L4.64,3.88888889 L1.6,3.88888889 C0.72,3.88888889 0,4.58888889 0,5.44444444 L0,10.1111111 C0,10.9666667 0.72,11.6666667 1.6,11.6666667 L2.4,11.6666667 L2.4,14 L4.8,11.6666667 L8.8,11.6666667 C9.68,11.6666667 10.4,10.9666667 10.4,10.1111111 L10.4,8.69524444 C10.34848,8.70566667 10.29456,8.71111111 10.24,8.71111111 L4.64,8.71111111 L4.64,8.71111111 Z M14.4,0 L7.2,0 C6.32,0 5.6,0.7 5.6,1.55555556 L5.6,7.77777778 L11.2,7.77777778 L13.6,10.1111111 L13.6,7.77777778 L14.4,7.77777778 C15.28,7.77777778 16,7.07777778 16,6.22222222 L16,1.55555556 C16,0.7 15.28,0 14.4,0 L14.4,0 Z" id="Shape"></path>
        </g>
    </g>
</svg>