<?xml version="1.0" encoding="UTF-8"?>
<svg width="20px" height="20px" viewBox="0 0 20 20" version="1.1" xmlns="http://www.w3.org/2000/svg" xmlns:xlink="http://www.w3.org/1999/xlink">
    <!-- Generator: Sketch 40.2 (33826) - http://www.bohemiancoding.com/sketch -->
    <title>instagram_grey</title>
    <desc>Created with Sketch.</desc>
    <defs></defs>
    <g id="graphics" stroke="none" stroke-width="1" fill="none" fill-rule="evenodd">
        <g id="instagram_grey" fill="#787878">
            <path d="M14.6665919,6.25877638 C14.044241,6.25877638 13.5396714,5.74484408 13.5396714,5.11094487 C13.5396714,4.47704567 14.044241,3.96311337 14.6665919,3.96311337 C15.2889428,3.96311337 15.7935123,4.47704567 15.7935123,5.11094487 C15.7935123,5.74484408 15.2889428,6.25877638 14.6665919,6.25877638 M9.64270782,15.1526192 C6.97445103,15.1526192 4.8078556,12.9458206 4.8078556,10.2280518 C4.8078556,7.51028299 6.97445103,5.30348435 9.64270782,5.30348435 C12.3109646,5.30348435 14.47756,7.51028299 14.47756,10.2280518 C14.47756,12.9458206 12.3109646,15.1526192 9.64270782,15.1526192 M18.5635554,3.94830264 C18.3236305,3.31884665 18.0037305,2.78566041 17.4802577,2.25247416 C16.956785,1.71928791 16.4333123,1.39345187 15.8153237,1.14907484 C15.2191464,0.912103175 14.5284532,0.749185155 13.532401,0.704752967 C12.5290782,0.66032078 12.2091782,0.645510051 9.64997827,0.645510051 C7.0907783,0.645510051 6.7708783,0.652915415 5.76755559,0.704752967 C4.76423287,0.749185155 4.08081015,0.912103175 3.48463288,1.14907484 C2.86664425,1.39345187 2.34317153,1.71928791 1.81969881,2.25247416 C1.29622609,2.78566041 0.976326091,3.31884665 0.736401094,3.94830264 C0.503746551,4.55554253 0.343796552,5.25905216 0.300173826,6.27358711 C0.256551099,7.29552742 0.24201019,7.62136346 0.24201019,10.2280518 C0.24201019,12.8347401 0.249280644,13.1605761 0.300173826,14.1825164 C0.343796552,15.2044568 0.503746551,15.900561 0.736401094,16.5078009 C0.976326091,17.1372569 1.29622609,17.6704431 1.81969881,18.2036294 C2.34317153,18.7368156 2.86664425,19.0626517 3.48463288,19.3070287 C4.08081015,19.5440004 4.77150332,19.7069184 5.76755559,19.7513506 C6.7708783,19.7957828 7.0907783,19.8105935 9.64997827,19.8105935 C12.2091782,19.8105935 12.5290782,19.8031881 13.532401,19.7513506 C14.5357237,19.7069184 15.2191464,19.5440004 15.8153237,19.3070287 C16.4333123,19.0626517 16.956785,18.7368156 17.4802577,18.2036294 C18.0037305,17.6704431 18.3236305,17.1372569 18.5635554,16.5078009 C18.79621,15.900561 18.95616,15.1970514 18.9997827,14.1825164 C19.0434054,13.1605761 19.0579464,12.8347401 19.0579464,10.2280518 C19.0579464,7.62136346 19.0506759,7.29552742 18.9997827,6.27358711 C18.95616,5.2516468 18.79621,4.55554253 18.5635554,3.94830264 Z" id="Fill-1"></path>
        </g>
    </g>
</svg>