<?xml version="1.0" encoding="UTF-8"?>
<svg width="28px" height="28px" viewBox="0 0 28 28" version="1.1" xmlns="http://www.w3.org/2000/svg" xmlns:xlink="http://www.w3.org/1999/xlink">
    <!-- Generator: Sketch 40.2 (33826) - http://www.bohemiancoding.com/sketch -->
    <title>ok_hover</title>
    <desc>Created with Sketch.</desc>
    <defs>
        <rect id="path-1" x="0" y="0" width="28" height="28" rx="1"></rect>
        <mask id="mask-2" maskContentUnits="userSpaceOnUse" maskUnits="objectBoundingBox" x="0" y="0" width="28" height="28" fill="white">
            <use xlink:href="#path-1"></use>
        </mask>
    </defs>
    <g id="graphics" stroke="none" stroke-width="1" fill="none" fill-rule="evenodd">
        <g id="ok_hover">
            <use id="Rectangle-4-Copy-3" stroke="#000000" mask="url(#mask-2)" stroke-width="2" fill="#000000" xlink:href="#path-1"></use>
            <path d="M14.1345768,13.1650952 C13.0024593,13.1650952 12.0359442,12.7869248 11.2350313,12.030584 C10.4341185,11.2742433 10.033662,10.3643597 10.033662,9.30093321 C10.033662,8.23181997 10.4341185,7.31909297 11.2350313,6.56275223 C12.0359442,5.80641148 13.0024593,5.4282411 14.1345768,5.4282411 C15.2666942,5.4282411 16.2332093,5.80641148 17.0341222,6.56275223 C17.835035,7.31909297 18.2354915,8.23181997 18.2354915,9.30093321 C18.2354915,10.3643597 17.835035,11.2742433 17.0341222,12.030584 C16.2332093,12.7869248 15.2666942,13.1650952 14.1345768,13.1650952 L14.1345768,13.1650952 Z M14.1345768,7.39017763 C13.5805618,7.39017763 13.1063371,7.57641943 12.7119026,7.94890303 C12.3174681,8.32138664 12.1202508,8.77206336 12.1202508,9.30093321 C12.1202508,9.82411628 12.3174681,10.2719496 12.7119026,10.6444332 C13.1063371,11.0169168 13.5805618,11.2031586 14.1345768,11.2031586 C14.6885917,11.2031586 15.1628164,11.0169168 15.5572509,10.6444332 C15.9516854,10.2719496 16.1489027,9.82411628 16.1489027,9.30093321 C16.1489027,8.77206336 15.9516854,8.32138664 15.5572509,7.94890303 C15.1628164,7.57641943 14.6885917,7.39017763 14.1345768,7.39017763 L14.1345768,7.39017763 Z M18.8587582,13.6342539 C18.937043,13.7877967 18.9822072,13.9285444 18.994251,14.0564968 C19.0062948,14.1844491 18.9927455,14.2996063 18.9536032,14.4019682 C18.9144608,14.5043301 18.8346706,14.6138005 18.7142326,14.7303793 C18.5937946,14.8469581 18.4658292,14.9521634 18.3303364,15.0459952 C18.1948436,15.1398269 18.0096702,15.2578275 17.774816,15.3999968 C17.0822974,15.8151312 16.133848,16.0824095 14.9294677,16.2018317 L15.5888659,16.8160031 L18.0006373,19.0935555 C18.1812944,19.2698455 18.2716229,19.4802561 18.2716229,19.7247873 C18.2716229,19.9693185 18.1812944,20.1768857 18.0006373,20.3474889 L17.8922431,20.4583809 C17.7055642,20.6289841 17.4827538,20.7142857 17.2238121,20.7142857 C16.9648703,20.7142857 16.74206,20.6289841 16.555381,20.4583809 C16.1519137,20.0716804 15.3479898,19.3096529 14.1436096,18.1722984 L11.7318382,20.4583809 C11.5451592,20.6289841 11.3223489,20.7142857 11.0634071,20.7142857 C10.8044654,20.7142857 10.584666,20.6289841 10.404009,20.4583809 L10.2956147,20.3474889 C10.1089358,20.1768857 10.0155963,19.9693185 10.0155963,19.7247873 C10.0155963,19.4802561 10.1089358,19.2698455 10.2956147,19.0935555 L12.7073862,16.8160031 L13.3577515,16.2018317 C12.1353056,16.0824095 11.1808342,15.8151312 10.4943375,15.3999968 C10.2594833,15.2578275 10.0743099,15.1398269 9.9388171,15.0459952 C9.80332432,14.9521634 9.67535892,14.8469581 9.5549209,14.7303793 C9.43448287,14.6138005 9.35469268,14.5043301 9.31555032,14.4019682 C9.27640797,14.2996063 9.26285869,14.1844491 9.27490249,14.0564968 C9.28694629,13.9285444 9.33211055,13.7877967 9.41039527,13.6342539 C9.47061428,13.5205184 9.5549209,13.4209999 9.66331512,13.3356983 C9.77170934,13.2503967 9.89816926,13.1878422 10.0426949,13.1480348 C10.1872205,13.1082274 10.3558338,13.1139142 10.5485346,13.1650952 C10.7412354,13.2162761 10.9369472,13.3157946 11.13567,13.4636507 C11.1657795,13.4863978 11.2109437,13.5176751 11.2711627,13.5574825 C11.3313817,13.5972899 11.4608526,13.6669528 11.6595754,13.7664714 C11.8582981,13.8659899 12.0660537,13.9527132 12.2828421,14.0266412 C12.4996306,14.1005692 12.776638,14.1688105 13.1138645,14.231365 C13.451091,14.2939195 13.7913284,14.3251968 14.1345768,14.3251968 C14.6825698,14.3251968 15.2064752,14.2526904 15.706293,14.1076777 C16.2061108,13.962665 16.5674248,13.819074 16.7902352,13.6769047 L17.1334835,13.4636507 C17.3322063,13.3157946 17.5279181,13.2162761 17.7206189,13.1650952 C17.9133198,13.1139142 18.081933,13.1082274 18.2264586,13.1480348 C18.3709842,13.1878422 18.4974442,13.2503967 18.6058384,13.3356983 C18.7142326,13.4209999 18.7985392,13.5205184 18.8587582,13.6342539 L18.8587582,13.6342539 Z" id="ok_logo" fill="#FFFFFF"></path>
        </g>
    </g>
</svg>