<?xml version="1.0" encoding="UTF-8"?>
<svg width="23px" height="23px" viewBox="0 0 23 23" version="1.1" xmlns="http://www.w3.org/2000/svg" xmlns:xlink="http://www.w3.org/1999/xlink">
    <!-- Generator: Sketch 40.2 (33826) - http://www.bohemiancoding.com/sketch -->
    <title>phone_grey</title>
    <desc>Created with Sketch.</desc>
    <defs></defs>
    <g id="graphics" stroke="none" stroke-width="1" fill="none" fill-rule="evenodd">
        <g id="phone_grey" fill="#787878">
            <path d="M13.1023333,13.1023333 C10.8542963,15.3503704 8.25103704,17.4993086 7.22228395,16.4702716 C5.7488642,14.9971358 4.84050617,13.713963 1.59296296,16.324037 C-1.6548642,18.9352469 0.839641975,20.6750123 2.26677778,22.102716 C3.91369136,23.7493457 10.0529877,22.189321 16.1212963,16.1218642 C22.1887531,10.0529877 23.7499136,3.91369136 22.1018642,2.26620988 C20.6744444,0.838790123 18.934679,-1.6548642 16.3246049,1.59324691 C13.713963,4.83993827 14.9965679,5.74858025 16.4702716,7.222 C17.4987407,8.25103704 15.3503704,10.8540123 13.1023333,13.1023333 L13.1023333,13.1023333 Z" id="Shape" transform="translate(11.358210, 11.358235) scale(-1, 1) translate(-11.358210, -11.358235) "></path>
        </g>
    </g>
</svg>