<?xml version="1.0" encoding="UTF-8"?>
<svg width="14px" height="14px" viewBox="0 0 14 14" version="1.1" xmlns="http://www.w3.org/2000/svg" xmlns:xlink="http://www.w3.org/1999/xlink">
    <!-- Generator: Sketch 40.2 (33826) - http://www.bohemiancoding.com/sketch -->
    <title>status</title>
    <desc>Created with Sketch.</desc>
    <defs></defs>
    <g id="graphics" stroke="none" stroke-width="1" fill="none" fill-rule="evenodd">
        <g id="status" fill="#000000">
            <path d="M13.65,2.03 L12.18,0.14 C12.11,0.07 11.97,0 11.83,0 L2.17,0 C2.03,0 1.89,0.07 1.82,0.14 L0.35,2.03 C0.14,2.24 0,2.45 0,2.73 L0,12.6 C0,13.37 0.63,14 1.4,14 L12.6,14 C13.37,14 14,13.37 14,12.6 L14,9.8 L14,2.73 C14,2.45 13.86,2.24 13.65,2.03 L13.65,2.03 Z M7,11.2 L3.5,7.7 L5.6,7.7 L5.6,4.9 L8.4,4.9 L8.4,7.7 L10.5,7.7 L7,11.2 L7,11.2 Z M11.9,2.1 L2.1,2.1 L2.45,1.4 L11.55,1.4 L11.9,2.1 L11.9,2.1 Z" id="Shape"></path>
        </g>
    </g>
</svg>