<?xml version="1.0" encoding="UTF-8"?>
<svg width="22px" height="16px" viewBox="0 0 22 16" version="1.1" xmlns="http://www.w3.org/2000/svg" xmlns:xlink="http://www.w3.org/1999/xlink">
    <!-- Generator: Sketch 46.2 (44496) - http://www.bohemiancoding.com/sketch -->
    <title>if_icon-social-youtube_211929</title>
    <desc>Created with Sketch.</desc>
    <defs></defs>
    <g id="Symbols" stroke="none" stroke-width="1" fill="none" fill-rule="evenodd">
        <g id="footer" transform="translate(-48.000000, -145.000000)" fill-rule="nonzero" fill="#787878">
            <g id="if_icon-social-youtube_211929" transform="translate(48.000000, 145.000000)">
                <path d="M21.1907483,3.53313684 C21.1907483,1.65824111 19.8116583,0.149991658 18.1075864,0.149991658 C15.7993814,0.0416643495 13.4453457,0 11.0413127,0 C10.9163197,0 10.7913266,0 10.6663336,0 C10.5413405,0 10.4163475,0 10.2913544,0 C7.8914879,0 5.53328571,0.0416643495 3.22508075,0.149991658 C1.52517529,0.149991658 0.146085325,1.66657398 0.146085325,3.54146971 C0.0419244511,5.02472055 -0.00390633337,6.50797139 0.000260101575,7.99122223 C-0.00390633337,9.47447308 0.0419244511,10.9577239 0.14191889,12.4451412 C0.14191889,14.3200369 1.52100886,15.8407857 3.22091432,15.8407857 C5.64577946,15.9532794 8.13314112,16.0032766 10.6621671,15.9991102 C13.1953596,16.0074431 15.6743884,15.9574459 18.10342,15.8407857 C19.8074919,15.8407857 21.1865818,14.3200369 21.1865818,12.4451412 C21.2865763,10.9577239 21.332407,9.47447308 21.3282406,7.9870558 C21.3365735,6.50380496 21.2907427,5.02055411 21.1907483,3.53313684 Z M8.62478045,12.0784949 L8.62478045,3.89145024 L14.6661111,7.98288936 L8.62478045,12.0784949 Z" id="Shape"></path>
            </g>
        </g>
    </g>
</svg>