<?xml version="1.0" encoding="UTF-8"?>
<svg width="29px" height="28px" viewBox="0 0 29 28" version="1.1" xmlns="http://www.w3.org/2000/svg" xmlns:xlink="http://www.w3.org/1999/xlink">
    <!-- Generator: Sketch 40.2 (33826) - http://www.bohemiancoding.com/sketch -->
    <title>vk</title>
    <desc>Created with Sketch.</desc>
    <defs>
        <rect id="path-1" x="0.823529412" y="0" width="28" height="28" rx="1"></rect>
        <mask id="mask-2" maskContentUnits="userSpaceOnUse" maskUnits="objectBoundingBox" x="0" y="0" width="28" height="28" fill="white">
            <use xlink:href="#path-1"></use>
        </mask>
    </defs>
    <g id="graphics" stroke="none" stroke-width="1" fill="none" fill-rule="evenodd">
        <g id="vk">
            <use id="Rectangle-4-Copy-4" stroke="#000000" mask="url(#mask-2)" stroke-width="2" xlink:href="#path-1"></use>
            <path d="M15.999852,9.46850286 C16.0495281,10.8184335 15.9129187,12.2350918 16.0495281,13.4912061 C16.0867852,13.8654994 16.4101324,14.2530941 16.845621,13.7852053 C18.0271153,12.4756206 19.0343729,9.96312686 19.1589333,9.52197333 C19.2210696,9.28148876 19.394895,9.17468038 19.6064709,9.17468038 L22.7527631,9.17468038 C23.1137375,9.17468038 23.7231749,9.37508419 23.2752261,10.310685 C22.466673,11.9811733 21.6461943,12.8097448 20.7259111,14.2799177 C20.464659,14.6942476 20.3524765,15.108445 20.6633635,15.4423924 C21.5712278,16.4182949 22.6409507,17.3932693 23.2379279,18.3692602 C23.6730053,19.1172724 23.262766,19.6919695 22.6409096,19.6919695 L19.8800597,19.6919695 C19.5194965,19.6919695 19.2210285,19.5314697 18.9349795,19.2778164 C18.3379612,18.7705097 17.9025137,18.1155627 17.3680429,17.5408655 C16.870418,17.0197272 16.5223149,17.0326309 16.285901,17.5270339 C16.0867852,17.9015482 16.0619471,18.329533 16.02469,19.1043688 C15.999852,19.4789272 15.763438,19.6384549 15.4401319,19.6919253 L14.0971491,19.6919253 C11.2990422,19.6919253 9.22210274,17.4338362 7.5682329,14.1995794 C6.82181609,12.7294949 6.11306761,11.4064762 5.47883332,9.7225981 C5.42915719,9.41516495 5.60302366,9.17468038 6.02613437,9.17468038 L8.55061135,9.17468038 C8.91121568,9.17468038 9.18484564,9.36169448 9.28419791,9.58887771 C9.99335762,11.3396602 10.8262964,12.9031634 11.5975513,13.83872 C11.7714178,14.0524693 12.0823049,14.1327192 12.2814617,13.83872 C12.6296059,13.3309272 12.5302536,10.4709196 12.3311379,10.0832808 C11.9829526,9.37508419 11.3983944,9.60222324 11.3983944,9.46850286 C11.4232325,9.05430552 11.9332765,8.68005638 13.8235191,8.66666667 C15.2911035,8.66666667 15.9749728,8.81382095 15.999852,9.46850286" id="Fill-1" fill="#000000"></path>
        </g>
    </g>
</svg>